<svg width="1440" height="53" viewBox="0 0 1440 53" fill="none" xmlns="http://www.w3.org/2000/svg">
<g clip-path="url(#clip0_143_9033)">
<mask id="path-1-inside-1_143_9033" fill="white">
<path d="M0 0H1440V53H0V0Z"/>
</mask>
<path d="M0 0H1440V53H0V0Z" fill="#1A1A1A"/>
<g clip-path="url(#clip1_143_9033)">
<g style="mix-blend-mode:color-dodge">
<path d="M-136.312 202.986C-84.3695 162.513 -26.5032 135.643 39.1023 158.967C94.4654 178.64 140.316 223.493 181.244 263.819C223.799 305.773 280.914 388.178 350.588 374.117C389.575 366.252 423.87 334.729 452.615 309.152C518.346 250.635 577.047 183.918 636.436 119.183C690.818 59.9141 754.692 5.88149 808.637 91.374C843.933 147.305 870.738 236.574 950.445 237.679C1021.91 238.66 1081.51 186.776 1148.24 169.002C1252.11 141.318 1353.61 232.067 1428.21 290.043" stroke="#666666" stroke-miterlimit="10"/>
<path d="M-136.312 180.622C-79.0084 135.539 -17.867 111.297 52.1817 142.59C110.111 168.48 160.843 217.464 205.671 260.836C245.89 299.765 295.725 365.459 359.14 344.993C397.836 332.497 431.484 299.118 460.354 272.289C518.221 218.528 571.998 160.302 626.59 103.265C678.615 48.8781 741.738 -4.02789 797.665 71.8055C837.445 125.755 862.769 212.04 942.184 215.983C1012.92 219.488 1081.32 172.819 1149.51 160.302C1252.65 141.359 1348.56 212.457 1428.23 267.241" stroke="#666666" stroke-miterlimit="10"/>
<path d="M-136.312 155.775C-74.6903 108.752 -11.901 88.0778 60.0878 125.212C115.242 153.647 166.141 199.439 211.512 241.226C253.796 280.175 305.717 347.288 369.612 317.581C402.968 302.08 430.42 272.561 456.62 247.589C511.733 195.016 563.863 139.273 617.682 85.4075C673.358 29.6851 736.44 -13.5201 794.202 60.5608C833.961 111.568 862.603 191.866 937.991 195.204C1007.35 198.292 1076.25 165.059 1143.94 154.002C1248.43 136.937 1341.2 190.218 1428.23 241.56" stroke="#666666" stroke-miterlimit="10"/>
<path d="M-136.312 128.905C-65.2407 77.626 2.55516 66.0267 78.2361 113.738C132.619 148.014 182.892 194.453 231.559 236.323C272.195 271.288 317.9 326.176 374.765 294.382C405.221 277.359 430.566 247.005 454.826 222.45C506.476 170.149 556.77 116.575 609.922 65.7764C664.993 13.1415 728.033 -24.8482 786.65 41.6599C830.415 91.3115 860.725 170.504 935.926 177.68C1002.2 184.001 1074.42 158.091 1139.61 147.994C1243.78 131.867 1335.44 168.689 1428.19 213.646" stroke="#666666" stroke-miterlimit="10"/>
<path d="M-136.312 100.512C-59.3163 48.7112 11.4834 43.162 88.6454 97.3615C146.866 138.251 199.184 189.926 254.547 234.738C292.617 265.53 334.734 307.755 382.316 272.373C413.773 248.986 439.452 213.751 465.569 185.044C509.73 136.54 554.997 88.6828 603.581 44.5805C663.116 -9.4729 727.678 -35.008 787.631 30.144C831.521 77.8346 865.147 152.27 937.261 160.344C1005.52 167.979 1079.32 150.059 1146.93 140.775C1246.35 127.132 1334.84 149.35 1428.21 183.918" stroke="#666666" stroke-miterlimit="10"/>
<path d="M-136.312 71.0335C-48.5316 16.1456 26.0855 21.987 106.669 86.3254C167.81 135.142 219.919 191.95 283.647 238.013C327.37 269.598 358.89 287.435 398.796 243.416C466.612 168.605 521.537 83.3421 600.994 18.8368C659.319 -28.4991 723.485 -46.1484 781.602 8.9482C830.707 55.4913 863.75 126.944 934.633 143.717C1000.07 159.176 1082.2 143.925 1147.99 134.955C1245.1 121.707 1332.73 129.489 1428.23 153.021" stroke="#666666" stroke-miterlimit="10"/>
<path d="M-136.312 40.9714C-38.018 -16.3783 42.0228 2.25148 124.901 75.6649C184.269 128.258 233.645 189.154 301.024 232.359C350.483 264.091 376.517 269.702 410.352 219.175C463.963 139.127 517.929 57.3063 596.029 -1.73315C659.173 -49.4863 723.152 -60.2093 784.856 -5.15452C836.235 40.7002 872.803 114.468 945.459 130.699C1009.9 145.094 1085.1 138.251 1150.06 129.405C1244.37 116.554 1332.96 110.755 1428.23 121.374" stroke="#666666" stroke-miterlimit="10"/>
<path d="M-136.312 10.805C-29.1733 -48.3388 54.6432 -19.1946 139.565 61.7292C199.664 118.995 249.207 188.946 323.198 229.543C378.123 259.689 397.398 244.021 423.599 192.346C465.277 110.171 517.991 27.1191 595.195 -26.4128C660.55 -71.7459 726.656 -73.1437 788.048 -21.0513C841.596 24.4071 880.605 96.2558 952.343 116.408C1106.21 159.635 1273.65 95.0249 1428.23 89.6634" stroke="#666666" stroke-miterlimit="10"/>
<path d="M-136.312 -19.0068C-83.0136 -47.4 -32.9073 -64.2565 26.7322 -43.5822C76.0667 -26.4754 116.473 9.42813 152.666 45.9992C212.368 106.374 263.413 187.611 342.953 223.493C402.613 250.405 416.736 214.147 436.866 163.557C469.679 81.0265 519.222 -3.52719 596.634 -51.8436C765.352 -157.176 826.243 55.9504 960.479 102.16C1117.24 156.13 1274.93 88.0362 1428.23 58.3495" stroke="#666666" stroke-miterlimit="10"/>
<path d="M-136.312 -47.9841C-80.719 -77.3995 -29.4862 -93.7971 31.238 -71.4539C82.1788 -52.7198 123.357 -14.438 160.259 24.3445C218.292 85.3241 278.307 190.886 364.877 215.169C425.476 232.172 435.03 175.469 450.383 129.823C477.251 49.9213 523.561 -38.179 601.036 -80.4454C761.868 -168.191 842.869 29.101 964.296 84.8651C1123.61 158.028 1277.87 83.0084 1428.21 27.9745" stroke="#666666" stroke-miterlimit="10"/>
<path d="M-136.312 -75.6263C-80.1766 -106.168 -29.6113 -122.754 32.1767 -101.12C83.4095 -83.1784 125.276 -43.1442 161.698 -4.13224C220.795 59.1839 284.148 179.453 376.037 197.395C438.493 209.599 447.254 147.201 460.897 100.345C484.323 19.9634 526.502 -69.0131 607.461 -106.398C768.523 -180.771 855.385 8.63529 974.184 69.8861C1036.03 101.763 1116.12 118.098 1185.02 107C1272.36 92.9387 1352.23 41.18 1428.23 -0.815188" stroke="#666666" stroke-miterlimit="10"/>
<path d="M-136.312 -101.495C-76.526 -136.064 -18.7432 -155.987 47.4464 -126.112C97.1147 -103.686 136.52 -62.4624 172.128 -22.4491C225.489 37.5083 292.742 163.828 382.504 173.299C450.07 180.434 458.602 106.645 473.079 56.8265C495.462 -20.1752 535.764 -102.726 616.89 -132.434C776.742 -190.993 869.173 -15.3977 984.51 53.2174C1042.79 87.8901 1118.97 111.631 1187.15 103.14C1278.47 91.7495 1357.51 25.6587 1428.19 -27.6437" stroke="#666666" stroke-miterlimit="10"/>
<path d="M-136.312 -125.09C-79.8637 -161.056 -24.292 -186.091 42.3983 -159.158C95.8422 -137.566 138.397 -91.7318 175.111 -48.9022C227.596 12.3278 293.597 138.042 386.843 140.254C453.324 141.818 465.632 66.9654 481.319 16.9801C505.579 -60.2511 543.941 -135.167 629.03 -157.009C791.97 -198.858 882.441 -38.3043 999.029 38.7183C1056.1 76.4368 1132.22 107.542 1201.75 97.5074C1292.68 84.3643 1365.73 8.78127 1428.21 -51.8437" stroke="#666666" stroke-miterlimit="10"/>
<path d="M-136.312 -145.931C-84.4947 -183.504 -30.6752 -214.985 35.2223 -192.913C86.5803 -175.722 127.028 -133.623 161.594 -93.6929C218.208 -28.3114 275.157 87.9943 372.616 95.4211C446.712 101.054 465.966 29.0383 487.285 -27.9359C516.364 -105.668 556.896 -171.487 645.948 -183.525C803.818 -204.867 894.79 -69.1175 1004.47 16.3333C1059.46 59.163 1133.91 100.178 1205.86 93.1681C1301.29 83.8636 1371.53 -4.88335 1428.21 -72.9143" stroke="#666666" stroke-miterlimit="10"/>
<path d="M-136.312 -162.371C-84.745 -198.357 -31.5722 -227.981 33.0111 -206.953C83.3052 -190.576 123.336 -150.333 157.484 -111.613C212.493 -49.2776 270.714 70.3869 365.378 73.6622C438.576 76.1865 463.629 11.3474 489.872 -45.6476C523.519 -118.685 569.057 -185.548 655.419 -197.21C807.761 -217.78 902.925 -90.9599 1011.04 -9.84841C1064.09 29.9354 1138.92 70.4077 1207.05 69.0725C1302.29 67.1949 1372.84 -23.4087 1428.21 -89.5412" stroke="#666666" stroke-miterlimit="10"/>
<path d="M-136.312 -173.615C-85.5585 -208.35 -33.1576 -237.161 30.1533 -218.009C79.0705 -203.218 118.517 -165.542 152.123 -128.658C206.256 -69.2217 264.226 49.191 355.823 49.7543C427.645 50.1924 458.226 -6.96947 489.579 -62.6502C527.879 -130.66 578.152 -195.917 661.447 -207.349C808.282 -227.481 907.473 -113.741 1015.65 -38.033C1068.18 -1.27414 1142.19 39.7406 1207.19 45.5402C1301.96 53.9893 1373.66 -37.5114 1428.19 -101.266" stroke="#666666" stroke-miterlimit="10"/>
<path d="M-136.312 -180.583C-87.6237 -213.858 -35.5774 -242.627 25.2303 -227.189C77.068 -214.046 118.246 -174.846 153.542 -136.898C207.194 -79.2146 260.993 27.9326 350.629 23.9479C418.446 20.9438 453.012 -30.5436 488.432 -81.2174C531.926 -143.47 584.431 -201.841 664.076 -213.149C808.7 -233.698 910.018 -135.375 1022.54 -65.2371C1074.52 -32.8176 1140.48 5.63113 1200.37 21.1316C1297.46 46.2494 1371.38 -44.7298 1428.21 -108.985" stroke="#666666" stroke-miterlimit="10"/>
<path d="M-136.312 -184.171C-88.9588 -216.946 -38.018 -246.34 21.7883 -234.178C71.5817 -224.039 112.051 -189.157 146.741 -154.13C201.145 -99.2213 251.793 -0.60663 338.635 -4.4661C404.511 -7.38678 444.125 -50.738 484.427 -97.4481C532.718 -153.4 588.457 -206.556 665.035 -217.697C803.547 -237.849 909.684 -159.241 1023.52 -96.697C1080.01 -65.6544 1139.42 -27.7064 1198.72 -2.58853C1294.2 37.8629 1369.26 -49.6741 1428.19 -113.533" stroke="#666666" stroke-miterlimit="10"/>
</g>
</g>
</g>
<path d="M1440 52H0V54H1440V52Z" fill="#262626" mask="url(#path-1-inside-1_143_9033)"/>
<defs>
<clipPath id="clip0_143_9033">
<path d="M0 0H1440V53H0V0Z" fill="white"/>
</clipPath>
<clipPath id="clip1_143_9033">
<rect width="1566" height="1046" fill="white" transform="translate(-137 -484)"/>
</clipPath>
</defs>
</svg>
