<svg width="63" height="62" viewBox="0 0 63 62" fill="none" xmlns="http://www.w3.org/2000/svg">
<rect x="1" y="0.5" width="61" height="61" rx="30.5" stroke="url(#paint0_linear_121_1901)"/>
<rect x="1" y="0.5" width="61" height="61" rx="30.5" stroke="url(#paint1_linear_121_1901)"/>
<path d="M31.5 24.625C29.7396 24.625 28.3125 26.0521 28.3125 27.8125C28.3125 29.5729 29.7396 31 31.5 31C33.2604 31 34.6875 29.5729 34.6875 27.8125C34.6875 26.0521 33.2604 24.625 31.5 24.625Z" fill="#A685FA"/>
<path fill-rule="evenodd" clip-rule="evenodd" d="M16.625 20.9062C16.625 19.4392 17.8142 18.25 19.2812 18.25H43.7188C45.1858 18.25 46.375 19.4392 46.375 20.9062V34.7188C46.375 36.1858 45.1858 37.375 43.7188 37.375H19.2812C17.8142 37.375 16.625 36.1858 16.625 34.7188V20.9062ZM26.1875 27.8125C26.1875 24.8785 28.566 22.5 31.5 22.5C34.434 22.5 36.8125 24.8785 36.8125 27.8125C36.8125 30.7465 34.434 33.125 31.5 33.125C28.566 33.125 26.1875 30.7465 26.1875 27.8125ZM41.0625 26.75C40.4757 26.75 40 27.2257 40 27.8125V27.8231C40 28.4099 40.4757 28.8856 41.0625 28.8856H41.0731C41.6599 28.8856 42.1356 28.4099 42.1356 27.8231V27.8125C42.1356 27.2257 41.6599 26.75 41.0731 26.75H41.0625ZM20.875 27.8125C20.875 27.2257 21.3507 26.75 21.9375 26.75H21.9481C22.5349 26.75 23.0106 27.2257 23.0106 27.8125V27.8231C23.0106 28.4099 22.5349 28.8856 21.9481 28.8856H21.9375C21.3507 28.8856 20.875 28.4099 20.875 27.8231V27.8125Z" fill="#A685FA"/>
<path d="M17.6875 39.5C17.1007 39.5 16.625 39.9757 16.625 40.5625C16.625 41.1493 17.1007 41.625 17.6875 41.625C25.3376 41.625 32.747 42.6481 39.7872 44.5644C41.4738 45.0235 43.1875 43.7738 43.1875 41.9864V40.5625C43.1875 39.9757 42.7118 39.5 42.125 39.5H17.6875Z" fill="#A685FA"/>
<defs>
<linearGradient id="paint0_linear_121_1901" x1="-6.25" y1="3.5" x2="62.25" y2="62" gradientUnits="userSpaceOnUse">
<stop stop-color="#A685FA"/>
<stop offset="0.323723" stop-color="#A685FA" stop-opacity="0"/>
</linearGradient>
<linearGradient id="paint1_linear_121_1901" x1="74.75" y1="76" x2="2.75" y2="25" gradientUnits="userSpaceOnUse">
<stop stop-color="#A685FA"/>
<stop offset="0.576615" stop-color="#A685FA" stop-opacity="0"/>
</linearGradient>
</defs>
</svg>
