<svg width="63" height="62" viewBox="0 0 63 62" fill="none" xmlns="http://www.w3.org/2000/svg">
<rect x="1" y="0.5" width="61" height="61" rx="30.5" stroke="url(#paint0_linear_121_1917)"/>
<rect x="1" y="0.5" width="61" height="61" rx="30.5" stroke="url(#paint1_linear_121_1917)"/>
<path d="M31.5 17.1875C32.0868 17.1875 32.5625 17.6632 32.5625 18.25V21.4375C32.5625 22.0243 32.0868 22.5 31.5 22.5C30.9132 22.5 30.4375 22.0243 30.4375 21.4375V18.25C30.4375 17.6632 30.9132 17.1875 31.5 17.1875Z" fill="#A685FA"/>
<path d="M25.125 31C25.125 27.4792 27.9792 24.625 31.5 24.625C35.0208 24.625 37.875 27.4792 37.875 31C37.875 34.5208 35.0208 37.375 31.5 37.375C27.9792 37.375 25.125 34.5208 25.125 31Z" fill="#A685FA"/>
<path d="M41.267 22.7356C41.6819 22.3207 41.6819 21.648 41.267 21.233C40.8521 20.8181 40.1793 20.8181 39.7644 21.233L37.5105 23.4869C37.0955 23.9019 37.0955 24.5746 37.5105 24.9895C37.9254 25.4045 38.5982 25.4045 39.0131 24.9895L41.267 22.7356Z" fill="#A685FA"/>
<path d="M45.3125 31C45.3125 31.5868 44.8368 32.0625 44.25 32.0625H41.0625C40.4757 32.0625 40 31.5868 40 31C40 30.4132 40.4757 29.9375 41.0625 29.9375H44.25C44.8368 29.9375 45.3125 30.4132 45.3125 31Z" fill="#A685FA"/>
<path d="M39.7642 40.7669C40.1792 41.1818 40.8519 41.1818 41.2668 40.7669C41.6818 40.3519 41.6818 39.6792 41.2668 39.2643L39.0129 37.0104C38.598 36.5954 37.9253 36.5954 37.5103 37.0104C37.0954 37.4253 37.0954 38.098 37.5103 38.513L39.7642 40.7669Z" fill="#A685FA"/>
<path d="M31.5 39.5C32.0868 39.5 32.5625 39.9757 32.5625 40.5625V43.75C32.5625 44.3368 32.0868 44.8125 31.5 44.8125C30.9132 44.8125 30.4375 44.3368 30.4375 43.75V40.5625C30.4375 39.9757 30.9132 39.5 31.5 39.5Z" fill="#A685FA"/>
<path d="M25.4898 38.513C25.9047 38.098 25.9047 37.4253 25.4898 37.0104C25.0749 36.5954 24.4021 36.5954 23.9872 37.0104L21.7333 39.2643C21.3184 39.6792 21.3184 40.3519 21.7333 40.7669C22.1482 41.1818 22.821 41.1818 23.2359 40.7669L25.4898 38.513Z" fill="#A685FA"/>
<path d="M23 31C23 31.5868 22.5243 32.0625 21.9375 32.0625H18.75C18.1632 32.0625 17.6875 31.5868 17.6875 31C17.6875 30.4132 18.1632 29.9375 18.75 29.9375H21.9375C22.5243 29.9375 23 30.4132 23 31Z" fill="#A685FA"/>
<path d="M23.987 24.9895C24.402 25.4045 25.0747 25.4045 25.4896 24.9895C25.9046 24.5746 25.9046 23.9019 25.4896 23.4869L23.2357 21.233C22.8208 20.8181 22.1481 20.8181 21.7331 21.233C21.3182 21.648 21.3182 22.3207 21.7331 22.7356L23.987 24.9895Z" fill="#A685FA"/>
<defs>
<linearGradient id="paint0_linear_121_1917" x1="-6.25" y1="3.5" x2="62.25" y2="62" gradientUnits="userSpaceOnUse">
<stop stop-color="#A685FA"/>
<stop offset="0.323723" stop-color="#A685FA" stop-opacity="0"/>
</linearGradient>
<linearGradient id="paint1_linear_121_1917" x1="74.75" y1="76" x2="2.75" y2="25" gradientUnits="userSpaceOnUse">
<stop stop-color="#A685FA"/>
<stop offset="0.576615" stop-color="#A685FA" stop-opacity="0"/>
</linearGradient>
</defs>
</svg>
